<svg width="50" height="41" viewBox="0 0 50 41" fill="none" xmlns="http://www.w3.org/2000/svg">
<path d="M15.4584 8.94026C15.329 11.017 15.2861 13.1269 15.3264 15.27L16.3197 15.3415C16.8247 12.2608 17.8641 9.1835 19.4486 6.10356C27.5017 1.19205 38.1881 -0.974671 48.7785 1.57907C44.8781 4.26836 40.6763 8.77912 36.1609 15.0647C33.7921 17.7587 31.4834 20.0893 29.2248 22.0737C24.835 24.0916 19.4915 25.7291 13.1817 26.9807L11.736 27.2674L13.0577 27.9195C13.972 28.3706 15.3366 28.5162 17.0754 28.4277C18.1236 28.3744 19.3336 28.2342 20.7042 28.0085C16.7893 29.9793 13.0751 30.741 9.54701 30.3323L9.31259 30.3052L9.14262 30.4689C6.71382 32.8081 5.235 34.3057 2.97489 36.7406C4.31231 34.6927 5.79935 32.6567 7.42539 30.649L7.4255 30.6488C14.2423 22.2259 23.4991 14.2866 34.4587 8.02098L34.048 7.11406C23.9985 10.5684 13.8194 18.6426 5.98064 27.3836C5.9631 26.131 6.06548 24.895 6.27854 23.6814C6.33527 24.2525 6.41531 24.7163 6.52126 25.068L7.49678 24.9804C7.89113 21.5247 8.47472 18.5335 9.23395 16.0082C10.8191 13.4121 12.9367 11.0233 15.4584 8.94026Z" fill="white" stroke="white"/>
</svg>
