<svg width="50" height="49" viewBox="0 0 50 49" fill="none" xmlns="http://www.w3.org/2000/svg">
<mask id="path-1-inside-1_403_56" fill="white">
<path d="M8.33331 20.4167L25 6.125L41.6666 20.4167L41.6667 40.8333H31.25V32.6667C31.25 31.0422 30.5915 29.4843 29.4194 28.3356C28.2473 27.187 26.6576 26.5417 25 26.5417C23.3424 26.5417 21.7527 27.187 20.5806 28.3356C19.4085 29.4843 18.75 31.0422 18.75 32.6667V40.8333H8.33332L8.33331 20.4167Z"/>
</mask>
<path d="M25 6.125L39.3208 -10.5757C31.0809 -17.6414 18.9191 -17.6414 10.6791 -10.5757L25 6.125ZM8.33331 20.4167L-5.98753 3.71596C-10.8617 7.89555 -13.6667 13.9959 -13.6667 20.4167L8.33331 20.4167ZM41.6666 20.4167L63.6666 20.4167C63.6666 13.9959 60.8616 7.89555 55.9875 3.71597L41.6666 20.4167ZM41.6667 40.8333V62.8333C47.5014 62.8333 53.0972 60.5155 57.223 56.3897C61.3488 52.2639 63.6667 46.6681 63.6667 40.8333L41.6667 40.8333ZM31.25 40.8333H9.24999C9.24999 52.9836 19.0997 62.8333 31.25 62.8333L31.25 40.8333ZM29.4194 28.3356L44.8179 12.623L44.8178 12.6229L29.4194 28.3356ZM18.75 40.8333V62.8333C30.9003 62.8333 40.75 52.9836 40.75 40.8333L18.75 40.8333ZM8.33332 40.8333L-13.6667 40.8333C-13.6667 52.9836 -3.81694 62.8333 8.33332 62.8333V40.8333ZM10.6791 -10.5757L-5.98753 3.71596L22.6542 37.1174L39.3208 22.8257L10.6791 -10.5757ZM55.9875 3.71597L39.3208 -10.5757L10.6791 22.8257L27.3458 37.1174L55.9875 3.71597ZM19.6666 20.4167L19.6667 40.8333L63.6667 40.8333L63.6666 20.4167L19.6666 20.4167ZM41.6667 18.8333H31.25V62.8333H41.6667V18.8333ZM53.25 40.8333V32.6667H9.24999V40.8333H53.25ZM53.25 32.6667C53.25 25.0624 50.1634 17.8616 44.8179 12.623L14.021 44.0483C11.0196 41.107 9.24999 37.022 9.24999 32.6667H53.25ZM44.8178 12.6229C39.4874 7.39909 32.3506 4.54167 25 4.54167V48.5417C20.9646 48.5417 17.0073 46.9749 14.021 44.0483L44.8178 12.6229ZM25 4.54167C17.6494 4.54167 10.5126 7.39908 5.18215 12.6229L35.979 44.0483C32.9927 46.9749 29.0353 48.5417 25 48.5417V4.54167ZM5.18215 12.6229C-0.163415 17.8616 -3.25001 25.0624 -3.25001 32.6667H40.75C40.75 37.022 38.9804 41.107 35.979 44.0483L5.18215 12.6229ZM-3.25001 32.6667V40.8333H40.75V32.6667H-3.25001ZM18.75 18.8333H8.33332V62.8333H18.75V18.8333ZM30.3333 40.8333L30.3333 20.4167L-13.6667 20.4167L-13.6667 40.8333L30.3333 40.8333Z" fill="white" mask="url(#path-1-inside-1_403_56)"/>
</svg>
